<svg width="375" height="812" viewBox="0 0 375 812" fill="none" xmlns="http://www.w3.org/2000/svg">
    <defs>
        <clipPath id="clip0">
            <rect width="375" height="812" fill="white" />
        </clipPath>
    </defs>
    <g clip-path="url(#clip0)">
        <rect width="375" height="812" fill="#14142C" />
        <path
            d="M0 -19L32.5 13.5L65 -19L97 13L129.5 -19.5L162 13L194.5 -19.5L227.5 13.5L260 -19L293 14L326 -19L359 14L392 -19"
            stroke="#0F0F21" />
        <path
            d="M0 -5.5L32.5 27L65 -5.5L97 26.5L129.5 -6L162 26.5L194.5 -6L227.5 27L260 -5.5L293 27.5L326 -5.5L359 27.5L392 -5.5"
            stroke="#0F0F21" />
        <path
            d="M0 8L32.5 40.5L65 8L97 40L129.5 7.5L162 40L194.5 7.5L227.5 40.5L260 8L293 41L326 8L359 41L392 8"
            stroke="#0F0F21" />
        <path
            d="M0 21.5L32.5 54L65 21.5L97 53.5L129.5 21L162 53.5L194.5 21L227.5 54L260 21.5L293 54.5L326 21.5L359 54.5L392 21.5"
            stroke="#0F0F21" />
        <path
            d="M0 35L32.5 67.5L65 35L97 67L129.5 34.5L162 67L194.5 34.5L227.5 67.5L260 35L293 68L326 35L359 68L392 35"
            stroke="#0F0F21" />
        <path
            d="M0 48.5L32.5 81L65 48.5L97 80.5L129.5 48L162 80.5L194.5 48L227.5 81L260 48.5L293 81.5L326 48.5L359 81.5L392 48.5"
            stroke="#0F0F21" />
        <path
            d="M0 62L32.5 94.5L65 62L97 94L129.5 61.5L162 94L194.5 61.5L227.5 94.5L260 62L293 95L326 62L359 95L392 62"
            stroke="#0F0F21" />
        <path
            d="M0 75.5L32.5 108L65 75.5L97 107.5L129.5 75L162 107.5L194.5 75L227.5 108L260 75.5L293 108.5L326 75.5L359 108.5L392 75.5"
            stroke="#0F0F21" />
        <path
            d="M0 89L32.5 121.5L65 89L97 121L129.5 88.5L162 121L194.5 88.5L227.5 121.5L260 89L293 122L326 89L359 122L392 89"
            stroke="#0F0F21" />
        <path
            d="M0 102.5L32.5 135L65 102.5L97 134.5L129.5 102L162 134.5L194.5 102L227.5 135L260 102.5L293 135.5L326 102.5L359 135.5L392 102.5"
            stroke="#0F0F21" />
        <path
            d="M0 116L32.5 148.5L65 116L97 148L129.5 115.5L162 148L194.5 115.5L227.5 148.5L260 116L293 149L326 116L359 149L392 116"
            stroke="#0F0F21" />
        <path
            d="M0 129.5L32.5 162L65 129.5L97 161.5L129.5 129L162 161.5L194.5 129L227.5 162L260 129.5L293 162.5L326 129.5L359 162.5L392 129.5"
            stroke="#0F0F21" />
        <path
            d="M0 143L32.5 175.5L65 143L97 175L129.5 142.5L162 175L194.5 142.5L227.5 175.5L260 143L293 176L326 143L359 176L392 143"
            stroke="#0F0F21" />
        <path
            d="M0 156.5L32.5 189L65 156.5L97 188.5L129.5 156L162 188.5L194.5 156L227.5 189L260 156.5L293 189.5L326 156.5L359 189.5L392 156.5"
            stroke="#0F0F21" />
        <path
            d="M0 170L32.5 202.5L65 170L97 202L129.5 169.5L162 202L194.5 169.5L227.5 202.5L260 170L293 203L326 170L359 203L392 170"
            stroke="#0F0F21" />
        <path
            d="M0 183.5L32.5 216L65 183.5L97 215.5L129.5 183L162 215.5L194.5 183L227.5 216L260 183.5L293 216.5L326 183.5L359 216.5L392 183.5"
            stroke="#0F0F21" />
        <path
            d="M0 197L32.5 229.5L65 197L97 229L129.5 196.5L162 229L194.5 196.5L227.5 229.5L260 197L293 230L326 197L359 230L392 197"
            stroke="#0F0F21" />
        <path
            d="M0 210.5L32.5 243L65 210.5L97 242.5L129.5 210L162 242.5L194.5 210L227.5 243L260 210.5L293 243.5L326 210.5L359 243.5L392 210.5"
            stroke="#0F0F21" />
        <path
            d="M0 224L32.5 256.5L65 224L97 256L129.5 223.5L162 256L194.5 223.5L227.5 256.5L260 224L293 257L326 224L359 257L392 224"
            stroke="#0F0F21" />
        <path
            d="M0 237.5L32.5 270L65 237.5L97 269.5L129.5 237L162 269.5L194.5 237L227.5 270L260 237.5L293 270.5L326 237.5L359 270.5L392 237.5"
            stroke="#0F0F21" />
        <path
            d="M0 251L32.5 283.5L65 251L97 283L129.5 250.5L162 283L194.5 250.5L227.5 283.5L260 251L293 284L326 251L359 284L392 251"
            stroke="#0F0F21" />
        <path
            d="M0 264.5L32.5 297L65 264.5L97 296.5L129.5 264L162 296.5L194.5 264L227.5 297L260 264.5L293 297.5L326 264.5L359 297.5L392 264.5"
            stroke="#0F0F21" />
        <path
            d="M0 278L32.5 310.5L65 278L97 310L129.5 277.5L162 310L194.5 277.5L227.5 310.5L260 278L293 311L326 278L359 311L392 278"
            stroke="#0F0F21" />
        <path
            d="M0 291.5L32.5 324L65 291.5L97 323.5L129.5 291L162 323.5L194.5 291L227.5 324L260 291.5L293 324.5L326 291.5L359 324.5L392 291.5"
            stroke="#0F0F21" />
        <path
            d="M0 305L32.5 337.5L65 305L97 337L129.5 304.5L162 337L194.5 304.5L227.5 337.5L260 305L293 338L326 305L359 338L392 305"
            stroke="#0F0F21" />
        <path
            d="M0 318.5L32.5 351L65 318.5L97 350.5L129.5 318L162 350.5L194.5 318L227.5 351L260 318.5L293 351.5L326 318.5L359 351.5L392 318.5"
            stroke="#0F0F21" />
        <path
            d="M0 332L32.5 364.5L65 332L97 364L129.5 331.5L162 364L194.5 331.5L227.5 364.5L260 332L293 365L326 332L359 365L392 332"
            stroke="#0F0F21" />
        <path
            d="M0 345.5L32.5 378L65 345.5L97 377.5L129.5 345L162 377.5L194.5 345L227.5 378L260 345.5L293 378.5L326 345.5L359 378.5L392 345.5"
            stroke="#0F0F21" />
        <path
            d="M0 359L32.5 391.5L65 359L97 391L129.5 358.5L162 391L194.5 358.5L227.5 391.5L260 359L293 392L326 359L359 392L392 359"
            stroke="#0F0F21" />
        <path
            d="M0 372.5L32.5 405L65 372.5L97 404.5L129.5 372L162 404.5L194.5 372L227.5 405L260 372.5L293 405.5L326 372.5L359 405.5L392 372.5"
            stroke="#0F0F21" />
        <path
            d="M0 386L32.5 418.5L65 386L97 418L129.5 385.5L162 418L194.5 385.5L227.5 418.5L260 386L293 419L326 386L359 419L392 386"
            stroke="#0F0F21" />
        <path
            d="M0 399.5L32.5 432L65 399.5L97 431.5L129.5 399L162 431.5L194.5 399L227.5 432L260 399.5L293 432.5L326 399.5L359 432.5L392 399.5"
            stroke="#0F0F21" />
        <path
            d="M0 413L32.5 445.5L65 413L97 445L129.5 412.5L162 445L194.5 412.5L227.5 445.5L260 413L293 446L326 413L359 446L392 413"
            stroke="#0F0F21" />
        <path
            d="M0 426.5L32.5 459L65 426.5L97 458.5L129.5 426L162 458.5L194.5 426L227.5 459L260 426.5L293 459.5L326 426.5L359 459.5L392 426.5"
            stroke="#0F0F21" />
        <path
            d="M0 440L32.5 472.5L65 440L97 472L129.5 439.5L162 472L194.5 439.5L227.5 472.5L260 440L293 473L326 440L359 473L392 440"
            stroke="#0F0F21" />
        <path
            d="M0 453.5L32.5 486L65 453.5L97 485.5L129.5 453L162 485.5L194.5 453L227.5 486L260 453.5L293 486.5L326 453.5L359 486.5L392 453.5"
            stroke="#0F0F21" />
        <path
            d="M0 467L32.5 499.5L65 467L97 499L129.5 466.5L162 499L194.5 466.5L227.5 499.5L260 467L293 500L326 467L359 500L392 467"
            stroke="#0F0F21" />
        <path
            d="M0 480.5L32.5 513L65 480.5L97 512.5L129.5 480L162 512.5L194.5 480L227.5 513L260 480.5L293 513.5L326 480.5L359 513.5L392 480.5"
            stroke="#0F0F21" />
        <path
            d="M0 494L32.5 526.5L65 494L97 526L129.5 493.5L162 526L194.5 493.5L227.5 526.5L260 494L293 527L326 494L359 527L392 494"
            stroke="#0F0F21" />
        <path
            d="M0 507.5L32.5 540L65 507.5L97 539.5L129.5 507L162 539.5L194.5 507L227.5 540L260 507.5L293 540.5L326 507.5L359 540.5L392 507.5"
            stroke="#0F0F21" />
        <path
            d="M0 521L32.5 553.5L65 521L97 553L129.5 520.5L162 553L194.5 520.5L227.5 553.5L260 521L293 554L326 521L359 554L392 521"
            stroke="#0F0F21" />
        <path
            d="M0 534.5L32.5 567L65 534.5L97 566.5L129.5 534L162 566.5L194.5 534L227.5 567L260 534.5L293 567.5L326 534.5L359 567.5L392 534.5"
            stroke="#0F0F21" />
        <path
            d="M0 548L32.5 580.5L65 548L97 580L129.5 547.5L162 580L194.5 547.5L227.5 580.5L260 548L293 581L326 548L359 581L392 548"
            stroke="#0F0F21" />
        <path
            d="M0 561.5L32.5 594L65 561.5L97 593.5L129.5 561L162 593.5L194.5 561L227.5 594L260 561.5L293 594.5L326 561.5L359 594.5L392 561.5"
            stroke="#0F0F21" />
        <path
            d="M0 575L32.5 607.5L65 575L97 607L129.5 574.5L162 607L194.5 574.5L227.5 607.5L260 575L293 608L326 575L359 608L392 575"
            stroke="#0F0F21" />
        <path
            d="M0 588.5L32.5 621L65 588.5L97 620.5L129.5 588L162 620.5L194.5 588L227.5 621L260 588.5L293 621.5L326 588.5L359 621.5L392 588.5"
            stroke="#0F0F21" />
        <path
            d="M0 602L32.5 634.5L65 602L97 634L129.5 601.5L162 634L194.5 601.5L227.5 634.5L260 602L293 635L326 602L359 635L392 602"
            stroke="#0F0F21" />
        <path
            d="M0 615.5L32.5 648L65 615.5L97 647.5L129.5 615L162 647.5L194.5 615L227.5 648L260 615.5L293 648.5L326 615.5L359 648.5L392 615.5"
            stroke="#0F0F21" />
        <path
            d="M0 629L32.5 661.5L65 629L97 661L129.5 628.5L162 661L194.5 628.5L227.5 661.5L260 629L293 662L326 629L359 662L392 629"
            stroke="#0F0F21" />
        <path
            d="M0 642.5L32.5 675L65 642.5L97 674.5L129.5 642L162 674.5L194.5 642L227.5 675L260 642.5L293 675.5L326 642.5L359 675.5L392 642.5"
            stroke="#0F0F21" />
        <path
            d="M0 656L32.5 688.5L65 656L97 688L129.5 655.5L162 688L194.5 655.5L227.5 688.5L260 656L293 689L326 656L359 689L392 656"
            stroke="#0F0F21" />
        <path
            d="M0 669.5L32.5 702L65 669.5L97 701.5L129.5 669L162 701.5L194.5 669L227.5 702L260 669.5L293 702.5L326 669.5L359 702.5L392 669.5"
            stroke="#0F0F21" />
        <path
            d="M0 683L32.5 715.5L65 683L97 715L129.5 682.5L162 715L194.5 682.5L227.5 715.5L260 683L293 716L326 683L359 716L392 683"
            stroke="#0F0F21" />
        <path
            d="M0 696.5L32.5 729L65 696.5L97 728.5L129.5 696L162 728.5L194.5 696L227.5 729L260 696.5L293 729.5L326 696.5L359 729.5L392 696.5"
            stroke="#0F0F21" />
        <path
            d="M0 710L32.5 742.5L65 710L97 742L129.5 709.5L162 742L194.5 709.5L227.5 742.5L260 710L293 743L326 710L359 743L392 710"
            stroke="#0F0F21" />
        <path
            d="M0 723.5L32.5 756L65 723.5L97 755.5L129.5 723L162 755.5L194.5 723L227.5 756L260 723.5L293 756.5L326 723.5L359 756.5L392 723.5"
            stroke="#0F0F21" />
        <path
            d="M0 737L32.5 769.5L65 737L97 769L129.5 736.5L162 769L194.5 736.5L227.5 769.5L260 737L293 770L326 737L359 770L392 737"
            stroke="#0F0F21" />
        <path
            d="M0 750.5L32.5 783L65 750.5L97 782.5L129.5 750L162 782.5L194.5 750L227.5 783L260 750.5L293 783.5L326 750.5L359 783.5L392 750.5"
            stroke="#0F0F21" />
        <path
            d="M0 764L32.5 796.5L65 764L97 796L129.5 763.5L162 796L194.5 763.5L227.5 796.5L260 764L293 797L326 764L359 797L392 764"
            stroke="#0F0F21" />
        <path
            d="M0 777.5L32.5 810L65 777.5L97 809.5L129.5 777L162 809.5L194.5 777L227.5 810L260 777.5L293 810.5L326 777.5L359 810.5L392 777.5"
            stroke="#0F0F21" />
        <path
            d="M0 791L32.5 823.5L65 791L97 823L129.5 790.5L162 823L194.5 790.5L227.5 823.5L260 791L293 824L326 791L359 824L392 791"
            stroke="#0F0F21" />
        <path
            d="M0 804.5L32.5 837L65 804.5L97 836.5L129.5 804L162 836.5L194.5 804L227.5 837L260 804.5L293 837.5L326 804.5L359 837.5L392 804.5"
            stroke="#0F0F21" />
    </g>
</svg>
