<svg width="24" height="24" viewBox="0 0 24 24" fill="none" xmlns="http://www.w3.org/2000/svg">
<path fill-rule="evenodd" clip-rule="evenodd" d="M12 4C7.13238 4 2.93406 7.06948 1 11.5C2.93406 15.9305 7.13238 19 12 19C16.8676 19 21.0659 15.9305 23 11.5C21.0659 7.06949 16.8676 4 12 4ZM15 11.5C15 13.1569 13.6569 14.5 12 14.5C10.3431 14.5 9 13.1569 9 11.5C9 9.84315 10.3431 8.5 12 8.5C13.6569 8.5 15 9.84315 15 11.5ZM17 11.5C17 14.2614 14.7614 16.5 12 16.5C9.23858 16.5 7 14.2614 7 11.5C7 8.73858 9.23858 6.5 12 6.5C14.7614 6.5 17 8.73858 17 11.5Z" fill="#2C3653"/>
</svg>
