<svg width="24" height="24" viewBox="0 0 24 24" fill="none" xmlns="http://www.w3.org/2000/svg">
<path fill-rule="evenodd" clip-rule="evenodd" d="M2.71 4.67231C2.32 4.28922 2.32 3.6704 2.71 3.28731C3.1 2.90423 3.74 2.90423 4.13 3.28731L20.44 19.3277C20.83 19.7108 20.83 20.3296 20.44 20.7127C20.05 21.0958 19.42 21.0958 19.03 20.7127L16.31 18.0409C14.97 18.5517 13.52 18.8464 12 18.8464C7 18.8464 2.73 15.7915 1 11.4794C1.77 9.54434 3.06 7.87449 4.68 6.60737L2.71 4.67231ZM17 11.4794C17 8.76836 14.76 6.56808 12 6.56808C11.49 6.56808 11 6.66631 10.53 6.80383L8.36 4.67231C9.51 4.30887 10.73 4.11242 12 4.11242C17 4.11242 21.27 7.16726 23 11.4696C22.31 13.1984 21.21 14.7111 19.82 15.9192L16.76 12.9135C16.9 12.4617 17 11.9804 17 11.4794ZM12 16.3907C9.24 16.3907 7 14.1904 7 11.4794C7 10.723 7.18 10.006 7.49 9.37735L9.06 10.9195C9.03 11.0963 9 11.2829 9 11.4794C9 13.11 10.34 14.4262 12 14.4262C12.2 14.4262 12.38 14.3967 12.57 14.3574L14.14 15.8996C13.49 16.2139 12.77 16.3907 12 16.3907ZM14.97 11.1553C14.82 9.78009 13.72 8.70942 12.33 8.56208L14.97 11.1553Z" fill="#2C3653"/>
</svg>
