<svg width="24" height="24" viewBox="0 0 24 24" fill="none" xmlns="http://www.w3.org/2000/svg">
<path fill-rule="evenodd" clip-rule="evenodd" d="M10.8 3.9L4.8 8.4C4.29639 8.77771 4 9.37049 4 10V19C4 20.1046 4.89543 21 6 21H18C19.1046 21 20 20.1046 20 19V10C20 9.37049 19.7036 8.77771 19.2 8.4L13.2 3.9C12.4889 3.36667 11.5111 3.36667 10.8 3.9ZM8.78274 13.3776C8.43902 12.9454 7.80994 12.8735 7.37765 13.2173C6.94535 13.561 6.87355 14.1901 7.21726 14.6224C7.92439 15.5117 9.23996 16.5876 10.9459 16.9072C12.7282 17.2411 14.7558 16.7152 16.7172 14.6969C17.102 14.3008 17.093 13.6677 16.6969 13.2828C16.3008 12.898 15.6677 12.907 15.2828 13.3031C13.7242 14.907 12.3518 15.1358 11.3141 14.9414C10.2 14.7327 9.27561 13.9975 8.78274 13.3776Z" fill="#727280"/>
</svg>
