<svg width="24" height="24" viewBox="0 0 24 24" fill="none" xmlns="http://www.w3.org/2000/svg">
<path fill-rule="evenodd" clip-rule="evenodd" d="M12 3C17.5417 3 22 6.53425 22 10.8904C22 15.2466 17.5417 18.7808 12 18.7808C11.0753 18.7869 10.1528 18.6904 9.25 18.4932L2.875 21L5.04167 16.5205C3.16667 15.1233 2 13.1096 2 10.8904C2 6.53425 6.45833 3 12 3ZM8.78274 12.3776C8.43902 11.9454 7.80994 11.8735 7.37765 12.2173C6.94535 12.561 6.87355 13.1901 7.21726 13.6224C7.92439 14.5117 9.23996 15.5876 10.9459 15.9072C12.7282 16.2411 14.7558 15.7152 16.7172 13.6969C17.102 13.3008 17.093 12.6677 16.6969 12.2828C16.3008 11.898 15.6677 11.907 15.2828 12.3031C13.7242 13.907 12.3518 14.1358 11.3141 13.9414C10.2 13.7327 9.27561 12.9975 8.78274 12.3776Z" fill="#727280"/>
</svg>
