<svg width="24" height="24" viewBox="0 0 24 24" fill="none" xmlns="http://www.w3.org/2000/svg">
    <path d="M8 17V19.5824C8 19.7628 8.15343 19.9226 8.38062 19.9794C8.43742 19.9933 8.4957 20 8.55323 20C8.72584 20 8.89255 19.9388 8.99877 19.8296L11 17.7739L8 17Z"
          fill="#898995"/>
    <path d="M18.7637 3.10432C18.5912 2.98207 18.3647 2.96557 18.1772 3.06382L1.30228 11.8763C1.10278 11.9805 0.985033 12.1935 1.00153 12.4178C1.01878 12.6428 1.16803 12.8348 1.38028 12.9075L6.07152 14.511L16.0622 5.96855L8.33126 15.2828L16.1935 17.97C16.252 17.9895 16.3135 18 16.375 18C16.477 18 16.5782 17.9722 16.6675 17.9183C16.81 17.8313 16.9067 17.685 16.9315 17.5208L18.994 3.64581C19.0247 3.43581 18.9362 3.22732 18.7637 3.10432Z"
          fill="#898995"/>
</svg>
