<svg width="24" height="24" viewBox="0 0 24 24" fill="none" xmlns="http://www.w3.org/2000/svg">
<path fill-rule="evenodd" clip-rule="evenodd" d="M3.09416 11.9049L11.9082 3.09088C12.2837 2.71538 12.7922 2.50488 13.3227 2.50488H19.4942C20.5942 2.50488 21.4942 3.40488 21.4942 4.50488V10.6769C21.4942 11.2069 21.2832 11.7159 20.9082 12.0909L12.0942 20.9049C11.3072 21.6919 10.0312 21.6919 9.24416 20.9049L3.09416 14.7549C2.30716 13.9679 2.30716 12.6919 3.09416 11.9049ZM17.4942 5.50488C17.4942 6.05488 17.9442 6.50488 18.4942 6.50488C19.0442 6.50488 19.4942 6.05488 19.4942 5.50488C19.4942 4.95488 19.0442 4.50488 18.4942 4.50488C17.9442 4.50488 17.4942 4.95488 17.4942 5.50488ZM12.4199 12.0317C12.8349 12.9736 13.3123 14.0572 12.3772 14.9924C11.7437 15.6254 10.6392 15.9559 9.47816 14.9734L8.89416 15.5574C8.83066 15.6209 8.72766 15.6209 8.66416 15.5574L8.43416 15.3274C8.37066 15.2639 8.37066 15.1609 8.43416 15.0974L9.01916 14.5124C8.64366 14.0719 8.29066 13.4959 8.09166 13.0029C8.03616 12.8644 8.06616 12.7079 8.17116 12.6029L8.71866 12.0554C8.82866 11.9454 9.01766 11.9884 9.06566 12.1369C9.20816 12.5784 9.53566 13.3069 10.1102 13.8814C10.6817 14.4524 11.1077 14.3894 11.3917 14.1054C11.7714 13.7256 11.4995 13.1339 11.1843 12.4482C10.75 11.5033 10.2337 10.3799 11.2272 9.38638C12.1677 8.44589 13.3142 8.78388 14.1007 9.43038L14.6387 8.89238C14.7027 8.82888 14.8052 8.82888 14.8687 8.89238L15.0987 9.12239C15.1622 9.18588 15.1622 9.28888 15.0987 9.35238L14.5692 9.88188C15.0157 10.3589 15.2662 10.7329 15.3992 11.0349C15.4582 11.1694 15.4232 11.3264 15.2622 11.4874L14.7812 11.9684C14.6707 12.0789 14.4867 12.0339 14.4337 11.8869C14.2647 11.4209 13.9647 10.8894 13.5337 10.4584C13.3542 10.2794 12.7537 9.73288 12.2437 10.2429C11.8188 10.6675 12.1009 11.3077 12.4199 12.0317Z" fill="#727280"/>
</svg>
