<svg width="56" height="52" viewBox="0 0 56 52" fill="none" xmlns="http://www.w3.org/2000/svg">
<g clip-path="url(#clip0_17_80)" filter="url(#filter0_d_17_80)">
<path d="M19.1003 43.5C37.2091 43.5 47.1166 28.4935 47.1166 15.4838C47.1166 15.0619 47.1072 14.6307 47.0884 14.2088C49.0158 12.815 50.679 11.0886 52 9.11066C50.205 9.90926 48.2993 10.4308 46.3478 10.6575C48.4026 9.42588 49.9411 7.491 50.6781 5.21159C48.7451 6.35718 46.6312 7.16528 44.4269 7.60128C42.9417 6.02318 40.978 4.97829 38.8394 4.62816C36.7008 4.27803 34.5064 4.64216 32.5955 5.66425C30.6846 6.68635 29.1636 8.30947 28.2677 10.2827C27.3718 12.2559 27.1509 14.4693 27.6391 16.5807C23.725 16.3842 19.8959 15.3675 16.4 13.5963C12.9041 11.825 9.81939 9.33893 7.34594 6.29909C6.0888 8.46655 5.70411 11.0314 6.27006 13.4722C6.83601 15.9131 8.31013 18.047 10.3928 19.44C8.82926 19.3904 7.29995 18.9694 5.93125 18.2119V18.3338C5.92985 20.6084 6.7162 22.8132 8.15662 24.5736C9.59704 26.334 11.6026 27.5412 13.8325 27.99C12.3841 28.3863 10.864 28.4441 9.38969 28.1588C10.0189 30.1149 11.2431 31.8258 12.8915 33.0527C14.5399 34.2796 16.5302 34.9613 18.5847 35.0025C15.0968 37.7423 10.7883 39.2283 6.35313 39.2213C5.56657 39.2201 4.7808 39.1719 4 39.0769C8.50571 41.9676 13.7471 43.5028 19.1003 43.5Z" fill="white"/>
</g>
<defs>
<filter id="filter0_d_17_80" x="0" y="0" width="56" height="56" filterUnits="userSpaceOnUse" color-interpolation-filters="sRGB">
<feFlood flood-opacity="0" result="BackgroundImageFix"/>
<feColorMatrix in="SourceAlpha" type="matrix" values="0 0 0 0 0 0 0 0 0 0 0 0 0 0 0 0 0 0 127 0" result="hardAlpha"/>
<feOffset dy="4"/>
<feGaussianBlur stdDeviation="2"/>
<feComposite in2="hardAlpha" operator="out"/>
<feColorMatrix type="matrix" values="0 0 0 0 0 0 0 0 0 0 0 0 0 0 0 0 0 0 0.25 0"/>
<feBlend mode="normal" in2="BackgroundImageFix" result="effect1_dropShadow_17_80"/>
<feBlend mode="normal" in="SourceGraphic" in2="effect1_dropShadow_17_80" result="shape"/>
</filter>
<clipPath id="clip0_17_80">
<rect width="48" height="48" fill="white" transform="translate(4)"/>
</clipPath>
</defs>
</svg>
