<svg width="16" height="16" viewBox="0 0 16 16" fill="none" xmlns="http://www.w3.org/2000/svg">
<path d="M8 16C12.4183 16 16 12.4183 16 8C16 3.58172 12.4183 0 8 0C3.58172 0 0 3.58172 0 8C0 12.4183 3.58172 16 8 16Z" fill="white"/>
<path d="M7.42825 10.8574C7.27671 10.8574 7.13138 10.7971 7.02425 10.69L4.73853 8.40426C4.63444 8.29649 4.57684 8.15214 4.57815 8.00231C4.57945 7.85249 4.63954 7.70917 4.74549 7.60322C4.85144 7.49727 4.99476 7.43717 5.14459 7.43587C5.29441 7.43457 5.43876 7.49217 5.54653 7.59626L7.40025 9.44997L11.0002 5.33569C11.0478 5.2735 11.1076 5.22174 11.176 5.18363C11.2444 5.14551 11.3198 5.12186 11.3977 5.11412C11.4756 5.10639 11.5543 5.11474 11.6288 5.13867C11.7034 5.1626 11.7722 5.20158 11.8311 5.25321C11.8899 5.30484 11.9375 5.36801 11.9709 5.4388C12.0044 5.50959 12.0229 5.58649 12.0253 5.66473C12.0278 5.74298 12.0142 5.82089 11.9853 5.89365C11.9564 5.96641 11.9129 6.03245 11.8574 6.08769L7.85739 10.6591C7.80589 10.718 7.74285 10.7657 7.67218 10.7992C7.60151 10.8327 7.52471 10.8513 7.44653 10.854L7.42825 10.8574Z" fill="#1E2539"/>
</svg>
